# xmcd
#
# Track frame offsets:
#	150
#	23186
#	45916
#	67775
#	85590
#	104535
#	121943
#	139286
#	164013
#	185752
#	203872
#	223742
#	249751
#
# Disc length: 3546 seconds
#
# Revision: 1
# Processed by: cddbd v1.5.2PL0 Copyright (c) Steve Scherf et al.
# Submitted via: EZCDAudioConverter 7.1.7.1
#
DISCID=b20dd80d
DTITLE=李小春 - 都市夜归人 Dts-Es6.1
DYEAR=2009
DGENRE=
TTITLE0=亲密爱人
TTITLE1=都市夜归人
TTITLE2=忘不了
TTITLE3=棋子
TTITLE4=约定
TTITLE5=如果爱下去
TTITLE6=翠湖寒
TTITLE7=如果云知道
TTITLE8=爱的代价
TTITLE9=新不了情
TTITLE10=我是不是你最疼爱的人
TTITLE11=听海
TTITLE12=你的眼神
EXTD=
EXTT0=
EXTT1=
EXTT2=
EXTT3=
EXTT4=
EXTT5=
EXTT6=
EXTT7=
EXTT8=
EXTT9=
EXTT10=
EXTT11=
EXTT12=
PLAYORDER=
